<svg width="22" height="22" viewBox="0 0 22 22" fill="none" xmlns="http://www.w3.org/2000/svg">
<g clip-path="url(#clip0_708_673)">
<path fill-rule="evenodd" clip-rule="evenodd" d="M11.4499 20.5144C11.1669 20.3719 10.8331 20.3719 10.5501 20.5144L8.48644 21.5539C7.99613 21.8009 7.39839 21.6064 7.1473 21.1182L6.03032 18.9464C5.88994 18.6734 5.63196 18.48 5.33058 18.4218L3.02131 17.9761C2.50361 17.8761 2.15245 17.3914 2.21879 16.8684L2.54123 14.3263C2.57796 14.0367 2.48634 13.7456 2.29041 13.5292L0.607864 11.6712C0.262844 11.2903 0.262844 10.7097 0.607864 10.3288L2.29041 8.47077C2.48634 8.25442 2.57796 7.96326 2.54123 7.67369L2.21879 5.13164C2.15245 4.60857 2.50361 4.12386 3.02131 4.02393L5.33058 3.57816C5.63196 3.51998 5.88994 3.32661 6.03032 3.05365L7.1473 0.881825C7.39839 0.39361 7.99613 0.199115 8.48644 0.446086L10.5501 1.48558C10.8331 1.62811 11.1669 1.62811 11.4499 1.48558L13.5136 0.446086C14.0039 0.199114 14.6016 0.39361 14.8527 0.881825L15.9697 3.05365C16.1101 3.32661 16.368 3.51998 16.6694 3.57816L18.9787 4.02393C19.4964 4.12386 19.8476 4.60857 19.7812 5.13164L19.4588 7.67369C19.422 7.96326 19.5137 8.25442 19.7096 8.47077L21.3921 10.3288C21.7372 10.7097 21.7372 11.2903 21.3921 11.6712L19.7096 13.5292C19.5137 13.7456 19.422 14.0367 19.4588 14.3263L19.7812 16.8684C19.8476 17.3914 19.4964 17.8761 18.9787 17.9761L16.6694 18.4218C16.368 18.48 16.1101 18.6734 15.9697 18.9464L14.8527 21.1182C14.6016 21.6064 14.0039 21.8009 13.5136 21.5539L11.4499 20.5144Z" fill="#4285F4"/>
<path fill-rule="evenodd" clip-rule="evenodd" d="M9.10181 12.2246L7.34766 10.4705L5.80078 12.0174L7.55494 13.7716L7.55223 13.7742L9.09911 15.3211L9.10181 15.3184L9.10448 15.3211L10.6514 13.7742L10.6487 13.7716L16.1702 8.25L14.6233 6.70312L9.10181 12.2246Z" fill="white"/>
</g>
<defs>
<clipPath id="clip0_708_673">
<rect width="22" height="22" fill="white"/>
</clipPath>
</defs>
</svg>
