<svg width="16" height="16" viewBox="0 0 16 16" fill="none" xmlns="http://www.w3.org/2000/svg">
<g clip-path="url(#clip0_709_1014)">
<path d="M7.65742 0C11.8169 0 15.1889 3.37195 15.1889 7.53145C15.1889 11.3821 12.299 14.5573 8.56987 15.0077V9.83294L10.6073 9.83293L11.0299 7.53145H8.56987V6.71748C8.56987 6.10937 8.68915 5.68837 8.96279 5.4194C9.23645 5.15042 9.66448 5.03348 10.2819 5.03348C10.4382 5.03348 10.5821 5.03503 10.7097 5.03814C10.8954 5.04266 11.0467 5.05047 11.152 5.06155V2.97522C11.1099 2.96353 11.0602 2.95183 11.0046 2.94032C10.8784 2.91423 10.7216 2.88909 10.553 2.86701C10.2008 2.82086 9.79716 2.78808 9.5148 2.78808C8.37442 2.78808 7.51258 3.03205 6.911 3.53739C6.18495 4.14726 5.83801 5.13784 5.83801 6.53973V7.53145H4.28496V9.83293H5.83801V14.8411C2.55758 14.0272 0.125977 11.0635 0.125977 7.53145C0.125977 3.37195 3.49793 0 7.65742 0Z" fill="#3A3A3A"/>
</g>
<defs>
<clipPath id="clip0_709_1014">
<rect width="15.0629" height="15.0629" fill="white" transform="translate(0.125977)"/>
</clipPath>
</defs>
</svg>
