<svg width="56" height="56" viewBox="0 0 56 56" fill="none" xmlns="http://www.w3.org/2000/svg">
<path d="M52.64 28.5835C52.64 26.7635 52.4767 25.0135 52.1733 23.3335H28V33.2735H41.8133C41.2067 36.4702 39.3867 39.1768 36.6567 40.9968V47.4602H44.9867C49.84 42.9802 52.64 36.4002 52.64 28.5835Z" fill="#4285F4"/>
<path d="M28 53.6666C34.93 53.6666 40.74 51.3799 44.9867 47.4599L36.6567 40.9966C34.37 42.5366 31.4533 43.4699 28 43.4699C21.3267 43.4699 15.6567 38.9666 13.6267 32.8999H5.08667V39.5266C9.31 47.9032 17.9667 53.6666 28 53.6666Z" fill="#34A853"/>
<path d="M13.6266 32.8766C13.1133 31.3366 12.8099 29.7032 12.8099 27.9999C12.8099 26.2966 13.1133 24.6632 13.6266 23.1232V16.4966H5.08659C3.33659 19.9499 2.33325 23.8466 2.33325 27.9999C2.33325 32.1532 3.33659 36.0499 5.08659 39.5033L11.7366 34.3232L13.6266 32.8766Z" fill="#FBBC05"/>
<path d="M28 12.5535C31.78 12.5535 35.14 13.8602 37.8233 16.3802L45.1733 9.03016C40.7167 4.87683 34.93 2.3335 28 2.3335C17.9667 2.3335 9.31 8.09683 5.08667 16.4968L13.6267 23.1235C15.6567 17.0568 21.3267 12.5535 28 12.5535Z" fill="#EA4335"/>
</svg>
