<svg width="16" height="16" viewBox="0 0 16 16" fill="none" xmlns="http://www.w3.org/2000/svg">
<path d="M11.6082 4.40723C11.1094 4.40821 10.7039 4.00435 10.7029 3.50556C10.7019 3.00678 11.1058 2.60122 11.6048 2.60024C12.1038 2.59927 12.5094 3.00336 12.5103 3.50215C12.5111 4.00093 12.1072 4.40625 11.6082 4.40723Z" fill="#3A3A3A"/>
<path fill-rule="evenodd" clip-rule="evenodd" d="M7.60164 11.3982C5.46623 11.4024 3.7315 9.6747 3.72735 7.53877C3.7232 5.40333 5.45134 3.66833 7.58676 3.66418C9.72266 3.66003 11.4576 5.38869 11.4618 7.52389C11.4659 9.65981 9.7373 11.3941 7.60164 11.3982ZM7.58944 5.02119C6.20341 5.02363 5.08141 6.14979 5.08385 7.53609C5.08653 8.92262 6.21293 10.0444 7.59896 10.0417C8.98548 10.039 10.1075 8.91311 10.1048 7.52657C10.1021 6.14003 8.97572 5.01851 7.58944 5.02119Z" fill="#3A3A3A"/>
<path fill-rule="evenodd" clip-rule="evenodd" d="M2.64829 0.405744C3.12657 0.218334 3.6739 0.0899771 4.47526 0.0521542C5.27859 0.0136022 5.53504 0.00481449 7.57992 0.000911695C9.6253 -0.0029911 9.88176 0.00481298 10.6851 0.0404398C11.4867 0.0750905 12.0343 0.201497 12.5135 0.386956C13.0094 0.578023 13.43 0.835226 13.8493 1.25275C14.2685 1.67076 14.5267 2.08999 14.7202 2.58511C14.9073 3.06388 15.0357 3.61074 15.0738 4.4126C15.1118 5.21567 15.1211 5.47189 15.125 7.51705C15.1289 9.56196 15.1206 9.81867 15.0855 10.6225C15.0506 11.4236 14.9244 11.9714 14.739 12.4505C14.5474 12.9463 14.2907 13.367 13.8732 13.7862C13.4557 14.2057 13.036 14.4636 12.5408 14.6574C12.0621 14.8443 11.5152 14.9727 10.7139 15.011C9.91056 15.0491 9.65409 15.0581 7.60848 15.062C5.56383 15.0659 5.30737 15.0581 4.50406 15.0227C3.70245 14.9876 3.15463 14.8614 2.67562 14.6762C2.17977 14.4844 1.75908 14.2279 1.33985 13.8101C0.920388 13.3924 0.661981 12.9729 0.468719 12.4778C0.281311 11.9993 0.153433 11.4522 0.115126 10.651C0.0768185 9.84746 0.0677928 9.59076 0.0638915 7.54585C0.0599751 5.50069 0.0680323 5.24447 0.103166 4.44114C0.138554 3.63929 0.264227 3.0917 0.449684 2.6122C0.641233 2.11658 0.897941 1.69613 1.31595 1.27666C1.73347 0.857433 2.15317 0.598761 2.64829 0.405744ZM3.1644 13.4109C3.43014 13.5132 3.82886 13.6352 4.56312 13.6672C5.35764 13.7016 5.59555 13.7091 7.60603 13.7052C9.61724 13.7016 9.85517 13.693 10.6494 13.6557C11.383 13.6208 11.7817 13.4973 12.0467 13.3938C12.3983 13.2565 12.6487 13.0922 12.9117 12.8289C13.1748 12.5647 13.3376 12.3136 13.4737 11.9619C13.5762 11.6959 13.698 11.297 13.7299 10.5627C13.7648 9.76864 13.7722 9.53048 13.7683 7.51949C13.7646 5.50899 13.7561 5.27082 13.7182 4.47653C13.6836 3.74275 13.5603 3.34402 13.4566 3.07925C13.3193 2.72713 13.1555 2.47725 12.8915 2.21395C12.6275 1.95065 12.3764 1.78837 12.0243 1.65221C11.759 1.54948 11.3598 1.42795 10.626 1.39599C9.83149 1.36109 9.59332 1.35401 7.58236 1.35792C5.57189 1.36182 5.33397 1.36987 4.53969 1.40746C3.80568 1.44235 3.40743 1.56558 3.14194 1.66929C2.79055 1.80667 2.54019 1.96993 2.27689 2.23421C2.01408 2.49848 1.85132 2.74909 1.71516 3.10146C1.61317 3.36696 1.49041 3.76618 1.45894 4.49996C1.42429 5.29449 1.41697 5.53266 1.42088 7.54316C1.42454 9.55415 1.43307 9.79232 1.47041 10.5861C1.50482 11.3204 1.62902 11.7186 1.73224 11.9844C1.86962 12.3355 2.03337 12.5859 2.29715 12.8492C2.56143 13.1115 2.81252 13.2748 3.1644 13.4109Z" fill="#3A3A3A"/>
</svg>
