<svg width="16" height="16" viewBox="0 0 16 16" fill="none" xmlns="http://www.w3.org/2000/svg">
<path d="M0.520925 4.79736C1.92063 9.99001 6.00996 14.0793 11.2026 15.479C13.3356 16.054 15.1577 14.2093 15.1577 12.0002V11.316C15.1577 10.7637 14.7088 10.3215 14.1595 10.264C13.2987 10.1739 12.4721 9.96845 11.6957 9.66346L10.2563 11.1028C7.91533 9.98249 6.01748 8.08464 4.89718 5.74366L6.3365 4.30434C6.03152 3.52785 5.82609 2.70133 5.73595 1.8405C5.67843 1.29122 5.23627 0.842285 4.68399 0.842285H3.99976C1.79062 0.842285 -0.0540392 2.66435 0.520925 4.79736Z" fill="#1257AB"/>
<path d="M9.4314 3.80615C9.79416 3.80615 10.1534 3.8776 10.4885 4.01643C10.8237 4.15525 11.1282 4.35873 11.3847 4.61524C11.6412 4.87176 11.8447 5.17628 11.9835 5.51143C12.1224 5.84659 12.1938 6.2058 12.1938 6.56856" stroke="#1257AB" stroke-linecap="round" stroke-linejoin="round"/>
<path d="M10.1052 1.01123C10.7465 1.01123 11.3815 1.13754 11.974 1.38295C12.5665 1.62836 13.1048 1.98806 13.5582 2.44151C14.0117 2.89497 14.3714 3.4333 14.6168 4.02577C14.8622 4.61824 14.9885 5.25324 14.9885 5.89453" stroke="#1257AB" stroke-linecap="round" stroke-linejoin="round"/>
</svg>
