<svg width="18" height="18" viewBox="0 0 18 18" fill="none" xmlns="http://www.w3.org/2000/svg">
<path d="M11.4744 10.783C11.2791 10.5877 10.9625 10.5877 10.7672 10.783C10.572 10.9783 10.572 11.2949 10.7673 11.4901L11.4744 10.783ZM16.104 15.4122L11.4744 10.783L10.7673 11.4901L15.397 16.1194L16.104 15.4122ZM11.8078 7.57562C11.8078 10.2494 9.64023 12.417 6.9664 12.417V13.417C10.1925 13.417 12.8078 10.8017 12.8078 7.57562H11.8078ZM6.9664 12.417C4.29256 12.417 2.125 10.2494 2.125 7.57562H1.125C1.125 10.8017 3.74028 13.417 6.9664 13.417V12.417ZM2.125 7.57562C2.125 4.90181 4.29256 2.73425 6.9664 2.73425V1.73425C3.74028 1.73425 1.125 4.34952 1.125 7.57562H2.125ZM6.9664 2.73425C9.64023 2.73425 11.8078 4.90181 11.8078 7.57562H12.8078C12.8078 4.34952 10.1925 1.73425 6.9664 1.73425V2.73425Z" fill="white"/>
</svg>
