<svg width="24" height="23" viewBox="0 0 24 23" fill="none" xmlns="http://www.w3.org/2000/svg">
<path d="M11.0122 1.432C11.4892 0.7405 12.5108 0.740499 12.9878 1.432L16.36 6.32073C16.5153 6.54589 16.7429 6.71123 17.005 6.78936L22.6966 8.48585C23.5016 8.72581 23.8173 9.6974 23.3071 10.3647L19.6997 15.0826C19.5335 15.2999 19.4466 15.5674 19.4533 15.8409L19.5986 21.7781C19.6192 22.6179 18.7927 23.2184 18.0004 22.9393L12.3986 20.9664C12.1406 20.8755 11.8594 20.8755 11.6014 20.9664L5.99964 22.9393C5.20729 23.2184 4.38081 22.6179 4.40136 21.7781L4.54669 15.8409C4.55338 15.5674 4.46646 15.2999 4.30032 15.0826L0.692935 10.3647C0.182678 9.6974 0.498366 8.72581 1.30342 8.48585L6.99496 6.78936C7.25709 6.71123 7.48466 6.54589 7.63997 6.32073L11.0122 1.432Z" fill="#FEA500"/>
</svg>
